# xmcd
#
# Track frame offsets:
#	150
#	15288
#	30493
#	44593
#	58305
#	75550
#	88709
#	106072
#	120828
#	136205
#	153251
#	169834
#	187436
#	201171
#	217891
#
# Disc length: 3123 seconds
#
# Revision: 1
# Processed by: cddbd v1.4PL0 Copyright (c) Steve Scherf et al.
# Submitted via: audiograbber 1.80
#
DISCID=c00c310f
DTITLE=Segura Peao - O Melhor Dos Rodeios
DYEAR=1900
DGENRE=
TTITLE0=A Malvada(Esa Malvada) - Juliano Cezar
TTITLE1=O Garrafao - Teodoro and Sampaio
TTITLE2=Apaixonado Por Voce - Ataide e Alexandre
TTITLE3=Zoiao - Edson e Hudson
TTITLE4=Clima De Rodeio - Dallas Company
TTITLE5=Da Da Da(Ich Dich Night Du Liebst Mich Night) - Gleidson Rodrigues and Gr
TTITLE5=upo Scala Musical
TTITLE6=Nois Tropica, Mas Nao Cai - Rick e Renner
TTITLE7=Va Pro Inferno Com Seu Amor - Chitaozinho e Xororo
TTITLE8=Canarinho Prisioneiro - Chico Rey and Parana
TTITLE9=Toneladas De Paixao - Sergio e Serginho
TTITLE10=Ela Chorou De Amor - Celio e Cerrone
TTITLE11=Ta Ruim Mas Ta Bom - Gilberto and Gilmar
TTITLE12=O Amor Chegou(Walk of Life) - Wilson and Soraya Di Paula
TTITLE13=A Brasileira - Grupo Tradicao
TTITLE14=Nois E Cauboi(Nois e Xiki Nu Urtimo) - Joao Carlos e Viriato
EXTD=
EXTT0=
EXTT1=
EXTT2=
EXTT3=
EXTT4=
EXTT5=
EXTT6=
EXTT7=
EXTT8=
EXTT9=
EXTT10=
EXTT11=
EXTT12=
EXTT13=
EXTT14=
PLAYORDER=
